# xmcd
#
# Track frame offsets:
#	150
#	17313
#	35554
#	53174
#	68537
#	84370
#	102818
#	118040
#	133777
#	148818
#	167098
#	183201
#	199010
#	215160
#	232061
#	246959
#	264036
#	282183
#	301233
#	320516
#	338935
#
# Disc length: 4728 seconds
#
# Revision: 1
# Processed by: cddbd v1.5.2PL0 Copyright (c) Steve Scherf et al.
# Submitted via: audiograbber 1.83.01
#
DISCID=2a127615
DTITLE=Helene Fischer - Helene Fischer - best of
DYEAR=2010
DGENRE=Schlager
TTITLE0=Von hier bis unendlich
TTITLE1=Du fängst mich auf und lässt mich fliegen
TTITLE2=Feuer am Horizont
TTITLE3=Ich glaub' dir hundert Lügen
TTITLE4=Ich will immer wieder ... dieses Feuer spürr'n
TTITLE5=Ich geb' nie auf (Am Anfang war das Feuer)
TTITLE6=Und ich vermiss dich auch
TTITLE7=Mitten im Paradies
TTITLE8=Im Reigen der Gefühle
TTITLE9=Vergeben, vergessen und wieder vertrau'n
TTITLE10=Mal ganz ehrlich
TTITLE11=Du hast mein Herz berührt
TTITLE12=Verlieb' dich nie nach Mitternacht
TTITLE13=Lass' mich in dein Leben
TTITLE14=Manchmal kommt die Liebe einfach so
TTITLE15=Und morgen früh küss ich dich wach
TTITLE16=Hundert Prozent
TTITLE17=Du lässt mich sein, so wie ich bin
TTITLE18=Von Null aus Sehnsucht
TTITLE19=Frag' nicht - ich mag dich
TTITLE20=Nicht von dieser Welt
EXTD=
EXTT0=
EXTT1=
EXTT2=
EXTT3=
EXTT4=
EXTT5=
EXTT6=
EXTT7=
EXTT8=
EXTT9=
EXTT10=
EXTT11=
EXTT12=
EXTT13=
EXTT14=
EXTT15=
EXTT16=
EXTT17=
EXTT18=
EXTT19=
EXTT20=
PLAYORDER=
